<svg xmlns="http://www.w3.org/2000/svg" version="1.1" xmlns:xlink="http://www.w3.org/1999/xlink" xmlns:svgjs="http://svgjs.dev/svgjs" width="2000" height="484" viewBox="0 0 2000 484"><g transform="matrix(1,0,0,1,-1.2121212121212466,-0.1928479031500956)"><svg viewBox="0 0 396 96" data-background-color="#ffffff" preserveAspectRatio="xMidYMid meet" height="484" width="2000" xmlns="http://www.w3.org/2000/svg" xmlns:xlink="http://www.w3.org/1999/xlink"><g id="tight-bounds" transform="matrix(1,0,0,1,0.2400000000000091,0.03825082376530986)"><svg viewBox="0 0 395.52 95.9234983524694" height="95.9234983524694" width="395.52"><g><svg viewBox="0 0 530.3755244497537 128.62933794939838" height="95.9234983524694" width="395.52"><g><svg viewBox="0 0 395.52 128.62933794939838" height="128.62933794939838" width="395.52"><g id="textblocktransform"><svg viewBox="0 0 395.52 128.62933794939838" height="128.62933794939838" width="395.52" id="textblock"><g><svg viewBox="0 0 395.52 79.28256433408578" height="79.28256433408578" width="395.52"><g transform="matrix(1,0,0,1,0,0)"><svg width="395.52" viewBox="3.44 -41.19 270.37 54.199999999999996" height="79.28256433408578" data-palette-color="#0369a1"><path d="M33.42-14.16L33.42-14.16Q33.42-11.08 32.5-8.4 31.57-5.71 29.81-3.72 28.05-1.73 25.51-0.59 22.97 0.56 19.75 0.56L19.75 0.56Q17.29 0.56 15.22-0.4 13.16-1.37 11.69-3.37L11.69-3.37 11.69 13.01 3.44 13.01 3.44-28.2 6.62-28.2 10.28-22.07Q10.82-23.61 11.76-24.87 12.7-26.12 13.93-27.01 15.16-27.91 16.64-28.39 18.12-28.88 19.75-28.88L19.75-28.88Q22.97-28.88 25.51-27.73 28.05-26.59 29.81-24.6 31.57-22.61 32.5-19.92 33.42-17.24 33.42-14.16ZM25.05-14.16L25.05-14.16Q25.05-15.23 24.94-16.44 24.83-17.65 24.56-18.85 24.29-20.04 23.82-21.14 23.34-22.24 22.61-23.08 21.88-23.93 20.84-24.43 19.8-24.93 18.43-24.93L18.43-24.93Q17.02-24.93 15.98-24.44 14.94-23.95 14.2-23.11 13.45-22.27 12.98-21.18 12.5-20.09 12.23-18.9 11.96-17.7 11.85-16.48 11.74-15.26 11.74-14.16L11.74-14.16Q11.74-13.18 11.89-12 12.04-10.82 12.35-9.62 12.67-8.42 13.18-7.3 13.7-6.18 14.44-5.3 15.19-4.42 16.17-3.89 17.16-3.37 18.43-3.37L18.43-3.37Q19.82-3.37 20.85-3.87 21.88-4.37 22.61-5.21 23.34-6.05 23.82-7.15 24.29-8.25 24.56-9.45 24.83-10.64 24.94-11.87 25.05-13.09 25.05-14.16ZM67.11-28.2L67.11 0 58.86 0 58.86-3.37Q57.39-1.37 55.33-0.4 53.27 0.56 50.8 0.56L50.8 0.56Q47.58 0.56 45.04-0.59 42.5-1.73 40.74-3.72 38.99-5.71 38.06-8.4 37.13-11.08 37.13-14.16L37.13-14.16Q37.13-17.24 38.06-19.92 38.99-22.61 40.74-24.6 42.5-26.59 45.04-27.73 47.58-28.88 50.8-28.88L50.8-28.88Q52.44-28.88 53.92-28.39 55.39-27.91 56.63-27.01 57.86-26.12 58.8-24.87 59.74-23.61 60.28-22.07L60.28-22.07 63.94-28.2 67.11-28.2ZM58.81-14.16L58.81-14.16Q58.81-15.26 58.7-16.48 58.59-17.7 58.32-18.9 58.05-20.09 57.58-21.18 57.1-22.27 56.36-23.11 55.61-23.95 54.56-24.44 53.51-24.93 52.12-24.93L52.12-24.93Q50.73-24.93 49.7-24.43 48.68-23.93 47.95-23.08 47.21-22.24 46.74-21.14 46.26-20.04 45.99-18.85 45.73-17.65 45.62-16.44 45.51-15.23 45.51-14.16L45.51-14.16Q45.51-13.09 45.62-11.87 45.73-10.64 45.99-9.45 46.26-8.25 46.74-7.15 47.21-6.05 47.95-5.21 48.68-4.37 49.7-3.87 50.73-3.37 52.12-3.37L52.12-3.37Q53.39-3.37 54.38-3.89 55.37-4.42 56.11-5.3 56.86-6.18 57.37-7.3 57.88-8.42 58.2-9.62 58.52-10.82 58.66-12 58.81-13.18 58.81-14.16ZM84.61-24.93L84.61 0 76.34 0 76.34-24.93 71.21-24.93 71.21-28.2 76.34-28.2 76.34-38.57 84.61-38.57 84.61-28.2 93.16-28.2 93.16-24.93 84.61-24.93ZM125.82-16.16L125.82-16.16Q125.82-13.31 125.13-10.21 124.43-7.1 123.19-4.13 121.94-1.15 120.21 1.48 118.47 4.1 116.4 6.01L116.4 6.01 113.3 4.32Q113.96 3.1 114.54 1.59 115.13 0.07 115.61-1.62 116.08-3.32 116.46-5.13 116.84-6.93 117.09-8.7 117.35-10.47 117.49-12.15 117.62-13.82 117.62-15.26L117.62-15.26Q117.62-16.21 117.55-17.3 117.47-18.38 117.24-19.47 117.01-20.56 116.62-21.56 116.23-22.56 115.58-23.32 114.93-24.07 114.02-24.54 113.1-25 111.86-25L111.86-25Q110.64-25 109.68-24.45 108.73-23.9 108-23.01 107.27-22.12 106.74-20.97 106.22-19.82 105.89-18.62 105.56-17.41 105.41-16.24 105.27-15.06 105.27-14.14L105.27-14.14 105.27 0 96.99 0 96.99-38.57 105.24-38.57 105.24-24.05Q106.83-26.37 109.14-27.62 111.44-28.88 114.25-28.88L114.25-28.88Q117.18-28.88 119.35-27.93 121.53-26.98 122.97-25.28 124.41-23.58 125.11-21.25 125.82-18.92 125.82-16.16ZM155.53-9.01L155.53-9.01Q155.53-7.15 154.99-5.71 154.46-4.27 153.53-3.21 152.6-2.15 151.33-1.43 150.06-0.71 148.61-0.27 147.16 0.17 145.57 0.37 143.98 0.56 142.42 0.56L142.42 0.56Q140.32 0.56 138.71 0.29 137.1 0.02 135.63-0.57 134.17-1.17 132.72-2.12 131.26-3.08 129.48-4.44L129.48-4.44 134.29-8.37Q134.95-7.13 136.04-6.12 137.12-5.1 138.3-4.37 139.47-3.64 140.57-3.25 141.66-2.86 142.35-2.86L142.35-2.86Q142.91-2.86 143.62-2.89 144.33-2.93 145.06-3.04 145.79-3.15 146.5-3.37 147.21-3.59 147.76-3.97 148.31-4.35 148.64-4.92 148.96-5.49 148.96-6.3L148.96-6.3Q148.96-7.13 148.54-7.75 148.11-8.37 147.43-8.84 146.74-9.3 145.86-9.62 144.99-9.94 144.09-10.18 143.2-10.42 142.37-10.61 141.54-10.79 140.93-10.96L140.93-10.96Q139.81-11.28 138.56-11.61 137.32-11.94 136.1-12.37 134.88-12.79 133.77-13.38 132.66-13.96 131.81-14.78 130.97-15.6 130.47-16.71 129.97-17.82 129.97-19.31L129.97-19.31Q129.97-22.05 131.06-23.89 132.14-25.73 133.93-26.84 135.71-27.95 137.98-28.42 140.25-28.88 142.59-28.88L142.59-28.88Q144.2-28.88 145.99-28.55 147.77-28.22 149.45-27.58 151.14-26.93 152.6-26 154.07-25.07 155.04-23.88L155.04-23.88 150.23-19.92Q149.7-21.39 148.83-22.44 147.96-23.49 146.95-24.16 145.94-24.83 144.88-25.15 143.81-25.46 142.91-25.46L142.91-25.46Q142.03-25.46 140.93-25.39 139.83-25.32 138.87-24.98 137.91-24.63 137.23-23.94 136.56-23.24 136.56-22.02L136.56-22.02Q136.56-21.14 136.97-20.52 137.37-19.9 138.03-19.45 138.69-18.99 139.53-18.69 140.37-18.38 141.25-18.15 142.13-17.92 142.96-17.75 143.79-17.58 144.45-17.38L144.45-17.38Q145.57-17.07 146.83-16.74 148.09-16.41 149.31-15.98 150.53-15.55 151.66-14.98 152.8-14.4 153.65-13.57 154.51-12.74 155.02-11.63 155.53-10.52 155.53-9.01ZM189.56-16.16L189.56-16.16Q189.56-13.31 188.87-10.21 188.17-7.1 186.93-4.13 185.68-1.15 183.95 1.48 182.21 4.1 180.14 6.01L180.14 6.01 177.04 4.32Q177.7 3.1 178.28 1.59 178.87 0.07 179.35-1.62 179.82-3.32 180.2-5.13 180.58-6.93 180.83-8.7 181.09-10.47 181.23-12.15 181.36-13.82 181.36-15.26L181.36-15.26Q181.36-16.21 181.29-17.3 181.21-18.38 180.98-19.47 180.75-20.56 180.36-21.56 179.97-22.56 179.32-23.32 178.67-24.07 177.76-24.54 176.84-25 175.6-25L175.6-25Q174.38-25 173.43-24.45 172.47-23.9 171.74-23.01 171.01-22.12 170.48-20.97 169.96-19.82 169.63-18.62 169.3-17.41 169.15-16.24 169.01-15.06 169.01-14.14L169.01-14.14 169.01 0 160.73 0 160.73-38.57 168.98-38.57 168.98-24.05Q170.57-26.37 172.88-27.62 175.18-28.88 177.99-28.88L177.99-28.88Q180.92-28.88 183.09-27.93 185.27-26.98 186.71-25.28 188.15-23.58 188.85-21.25 189.56-18.92 189.56-16.16ZM223.4-28.2L223.4 0 215.15 0 215.15-3.37Q213.68-1.37 211.62-0.4 209.56 0.56 207.09 0.56L207.09 0.56Q203.87 0.56 201.33-0.59 198.79-1.73 197.03-3.72 195.27-5.71 194.35-8.4 193.42-11.08 193.42-14.16L193.42-14.16Q193.42-17.24 194.35-19.92 195.27-22.61 197.03-24.6 198.79-26.59 201.33-27.73 203.87-28.88 207.09-28.88L207.09-28.88Q208.73-28.88 210.2-28.39 211.68-27.91 212.91-27.01 214.15-26.12 215.09-24.87 216.03-23.61 216.56-22.07L216.56-22.07 220.22-28.2 223.4-28.2ZM215.1-14.16L215.1-14.16Q215.1-15.26 214.99-16.48 214.88-17.7 214.61-18.9 214.34-20.09 213.86-21.18 213.39-22.27 212.64-23.11 211.9-23.95 210.85-24.44 209.8-24.93 208.41-24.93L208.41-24.93Q207.02-24.93 205.99-24.43 204.97-23.93 204.23-23.08 203.5-22.24 203.02-21.14 202.55-20.04 202.28-18.85 202.01-17.65 201.9-16.44 201.79-15.23 201.79-14.16L201.79-14.16Q201.79-13.09 201.9-11.87 202.01-10.64 202.28-9.45 202.55-8.25 203.02-7.15 203.5-6.05 204.23-5.21 204.97-4.37 205.99-3.87 207.02-3.37 208.41-3.37L208.41-3.37Q209.68-3.37 210.67-3.89 211.65-4.42 212.4-5.3 213.14-6.18 213.66-7.3 214.17-8.42 214.49-9.62 214.8-10.82 214.95-12 215.1-13.18 215.1-14.16ZM238.53-32.62L238.53 0 230.28 0 230.28-41.19 233.45-41.19 238.53-32.62ZM273.81-28.2L273.81 0 265.56 0 265.56-3.37Q264.09-1.37 262.03-0.4 259.97 0.56 257.5 0.56L257.5 0.56Q254.28 0.56 251.74-0.59 249.2-1.73 247.44-3.72 245.68-5.71 244.76-8.4 243.83-11.08 243.83-14.16L243.83-14.16Q243.83-17.24 244.76-19.92 245.68-22.61 247.44-24.6 249.2-26.59 251.74-27.73 254.28-28.88 257.5-28.88L257.5-28.88Q259.14-28.88 260.61-28.39 262.09-27.91 263.32-27.01 264.56-26.12 265.5-24.87 266.44-23.61 266.97-22.07L266.97-22.07 270.63-28.2 273.81-28.2ZM265.51-14.16L265.51-14.16Q265.51-15.26 265.4-16.48 265.29-17.7 265.02-18.9 264.75-20.09 264.27-21.18 263.8-22.27 263.05-23.11 262.31-23.95 261.26-24.44 260.21-24.93 258.82-24.93L258.82-24.93Q257.43-24.93 256.4-24.43 255.38-23.93 254.64-23.08 253.91-22.24 253.43-21.14 252.96-20.04 252.69-18.85 252.42-17.65 252.31-16.44 252.2-15.23 252.2-14.16L252.2-14.16Q252.2-13.09 252.31-11.87 252.42-10.64 252.69-9.45 252.96-8.25 253.43-7.15 253.91-6.05 254.64-5.21 255.38-4.37 256.4-3.87 257.43-3.37 258.82-3.37L258.82-3.37Q260.09-3.37 261.08-3.89 262.06-4.42 262.81-5.3 263.55-6.18 264.07-7.3 264.58-8.42 264.9-9.62 265.21-10.82 265.36-12 265.51-13.18 265.51-14.16Z" opacity="1" transform="matrix(1,0,0,1,0,0)" fill="#0369a1" class="wordmark-text-0" data-fill-palette-color="primary" id="text-0"></path></svg></g></svg></g><g transform="matrix(1,0,0,1,121.22688,97.99927499181942)"><svg viewBox="0 0 274.29312 30.630062957578957" height="30.630062957578957" width="274.29312"><g transform="matrix(1,0,0,1,0,0)"><svg width="274.29312" viewBox="3.75 -32.9 378.31 42.25" height="30.630062957578957" data-palette-color="#0369a1"><path d="M22.4-16L22.4-16 22.4-10.25 18.4-10.25 18.4-15.7Q18.4-18.15 16.98-19.3 15.55-20.45 13.2-20.45L13.2-20.45Q11.65-20.45 10.2-19.95 8.75-19.45 7.75-18.8L7.75-18.8 7.75-10.25 3.75-10.25 3.75-18.6Q3.75-19.6 4.17-20.3 4.6-21 5.65-21.65L5.65-21.65Q7-22.5 9.08-23.13 11.15-23.75 13.25-23.75L13.25-23.75Q15.8-23.75 17.75-22.98 19.7-22.2 20.65-20.85L20.65-20.85Q20.95-20.55 21.15-20.3 21.35-20.05 21.55-19.65L21.55-19.65Q21.9-19.05 22.15-18.1 22.4-17.15 22.4-16ZM37.05-15.9L37.05-15.9 37.05-10.25 33.05-10.25 33.05-15.7Q33.05-18.15 31.65-19.3 30.25-20.45 27.9-20.45L27.9-20.45Q26.15-20.45 24.53-19.73 22.9-19 21.6-17.65L21.6-17.65 20-20.55Q21.3-21.85 23.4-22.8 25.5-23.75 28.2-23.75L28.2-23.75Q30.9-23.75 32.88-22.9 34.85-22.05 35.95-20.3 37.05-18.55 37.05-15.9ZM3.75-1.55L3.75-12.9 7.75-12.9 7.75-0.1Q7.5 0 7 0.13 6.5 0.25 5.9 0.25L5.9 0.25Q4.85 0.25 4.3-0.18 3.75-0.6 3.75-1.55L3.75-1.55ZM18.4-1.55L18.4-12.9 22.4-12.9 22.4-0.1Q22.15 0 21.63 0.13 21.1 0.25 20.55 0.25L20.55 0.25Q19.45 0.25 18.93-0.18 18.4-0.6 18.4-1.55L18.4-1.55ZM33.05-1.55L33.05-12.9 37.05-12.9 37.05-0.1Q36.8 0 36.27 0.13 35.75 0.25 35.2 0.25L35.2 0.25Q34.1 0.25 33.58-0.18 33.05-0.6 33.05-1.55L33.05-1.55ZM52.8-2.6L52.8-2.6 52.8-2.6Q54.9-2.6 56.27-3.03 57.65-3.45 58.25-3.85L58.25-3.85 58.25-11.1 52.05-10.45Q49.45-10.25 48.2-9.3 46.95-8.35 46.95-6.55L46.95-6.55Q46.95-4.7 48.42-3.65 49.9-2.6 52.8-2.6ZM52.75-23.75L52.75-23.75 52.75-23.75Q57.1-23.75 59.65-21.8 62.2-19.85 62.2-15.65L62.2-15.65 62.2-3.8Q62.2-2.7 61.77-2.13 61.35-1.55 60.5-1.05L60.5-1.05Q59.3-0.4 57.3 0.15 55.3 0.7 52.8 0.7L52.8 0.7Q48.1 0.7 45.52-1.15 42.95-3 42.95-6.5L42.95-6.5Q42.95-9.75 45.12-11.48 47.3-13.2 51.15-13.55L51.15-13.55 58.25-14.25 58.25-15.65Q58.25-18.15 56.75-19.3 55.25-20.45 52.7-20.45L52.7-20.45Q50.65-20.45 48.77-19.85 46.9-19.25 45.45-18.5L45.45-18.5Q45.05-18.85 44.72-19.33 44.4-19.8 44.4-20.3L44.4-20.3Q44.4-21.6 45.85-22.3L45.85-22.3Q47.2-23 48.97-23.38 50.75-23.75 52.75-23.75ZM85.8-6.15L85.8-6.15 85.8-6.15Q85.8-2.95 83.45-1.15 81.09 0.65 76.65 0.65L76.65 0.65Q72.84 0.65 70.45-0.53 68.05-1.7 68.05-3.1L68.05-3.1Q68.05-3.7 68.37-4.28 68.7-4.85 69.34-5.2L69.34-5.2Q70.7-4.25 72.5-3.45 74.3-2.65 76.59-2.65L76.59-2.65Q81.8-2.65 81.8-6.15L81.8-6.15Q81.8-7.6 80.92-8.53 80.05-9.45 78.34-9.85L78.34-9.85 74.2-10.95Q71.15-11.7 69.75-13.28 68.34-14.85 68.34-17.2L68.34-17.2Q68.34-19.85 70.5-21.8 72.65-23.75 77.05-23.75L77.05-23.75Q79.4-23.75 81.15-23.28 82.9-22.8 83.87-22.03 84.84-21.25 84.84-20.35L84.84-20.35Q84.84-19.7 84.52-19.2 84.2-18.7 83.65-18.45L83.65-18.45Q83.05-18.85 82.12-19.33 81.2-19.8 79.95-20.13 78.7-20.45 77.2-20.45L77.2-20.45Q75-20.45 73.65-19.6 72.3-18.75 72.3-17.2L72.3-17.2Q72.3-16.1 73.07-15.28 73.84-14.45 75.55-14.05L75.55-14.05 79-13.2Q82.4-12.4 84.09-10.68 85.8-8.95 85.8-6.15ZM91.89-6.05L91.89-13.2 95.89-13.2 95.89-6.3Q95.89-4.3 97.04-3.48 98.19-2.65 100.19-2.65L100.19-2.65Q101.04-2.65 102.09-2.95 103.14-3.25 103.84-3.65L103.84-3.65Q104.14-3.35 104.39-2.9 104.64-2.45 104.64-1.85L104.64-1.85Q104.64-0.75 103.34-0.05 102.04 0.65 99.74 0.65L99.74 0.65Q96.24 0.65 94.07-0.9 91.89-2.45 91.89-6.05L91.89-6.05ZM103.04-19.3L93.94-19.3 93.94-22.6 104.09-22.6Q104.24-22.4 104.39-21.95 104.54-21.5 104.54-21L104.54-21Q104.54-20.2 104.14-19.75 103.74-19.3 103.04-19.3L103.04-19.3ZM95.89-28.35L95.89-11.7 91.89-11.7 91.89-29.8Q92.14-29.9 92.67-30.03 93.19-30.15 93.79-30.15L93.79-30.15Q94.84-30.15 95.37-29.73 95.89-29.3 95.89-28.35L95.89-28.35ZM110.09-30.4L110.09-30.4 110.09-30.4Q110.09-31.45 110.84-32.18 111.59-32.9 112.69-32.9L112.69-32.9Q113.84-32.9 114.54-32.18 115.24-31.45 115.24-30.4L115.24-30.4Q115.24-29.35 114.54-28.63 113.84-27.9 112.69-27.9L112.69-27.9Q111.59-27.9 110.84-28.63 110.09-29.35 110.09-30.4ZM110.69-1.55L110.69-13.2 114.69-13.2 114.69-0.1Q114.44 0 113.94 0.13 113.44 0.25 112.84 0.25L112.84 0.25Q111.79 0.25 111.24-0.18 110.69-0.6 110.69-1.55L110.69-1.55ZM114.69-21.5L114.69-11.25 110.69-11.25 110.69-23Q110.94-23.1 111.47-23.23 111.99-23.35 112.59-23.35L112.59-23.35Q113.64-23.35 114.16-22.93 114.69-22.5 114.69-21.5L114.69-21.5ZM148.44-19.15L138.64-10.55 136.14-12.5 147.54-23.55Q148.74-23.5 149.41-22.98 150.09-22.45 150.09-21.6L150.09-21.6Q150.09-20.9 149.66-20.35 149.24-19.8 148.44-19.15L148.44-19.15ZM146.69-1.15L136.04-11.85 138.84-13.5 151.54-2.1Q151.44-1 150.86-0.35 150.29 0.3 149.34 0.3L149.34 0.3Q148.59 0.3 147.96-0.1 147.34-0.5 146.69-1.15L146.69-1.15ZM132.59-1.55L132.59-13.4 136.59-12.8 136.59-0.1Q136.34 0 135.84 0.13 135.34 0.25 134.74 0.25L134.74 0.25Q133.69 0.25 133.14-0.18 132.59-0.6 132.59-1.55L132.59-1.55ZM136.59-30.95L136.59-10.85 132.59-11.45 132.59-32.4Q132.84-32.5 133.36-32.63 133.89-32.75 134.49-32.75L134.49-32.75Q135.54-32.75 136.06-32.33 136.59-31.9 136.59-30.95L136.59-30.95ZM156.48-30.4L156.48-30.4 156.48-30.4Q156.48-31.45 157.23-32.18 157.98-32.9 159.08-32.9L159.08-32.9Q160.23-32.9 160.93-32.18 161.63-31.45 161.63-30.4L161.63-30.4Q161.63-29.35 160.93-28.63 160.23-27.9 159.08-27.9L159.08-27.9Q157.98-27.9 157.23-28.63 156.48-29.35 156.48-30.4ZM157.08-1.55L157.08-13.2 161.08-13.2 161.08-0.1Q160.83 0 160.33 0.13 159.83 0.25 159.23 0.25L159.23 0.25Q158.18 0.25 157.63-0.18 157.08-0.6 157.08-1.55L157.08-1.55ZM161.08-21.5L161.08-11.25 157.08-11.25 157.08-23Q157.33-23.1 157.86-23.23 158.38-23.35 158.98-23.35L158.98-23.35Q160.03-23.35 160.56-22.93 161.08-22.5 161.08-21.5L161.08-21.5ZM188.73 0.65L188.73 0.65 188.73 0.65Q192.03 0.65 194.58-0.7 197.13-2.05 198.55-4.78 199.98-7.5 199.98-11.6L199.98-11.6Q199.98-15.85 198.4-18.53 196.83-21.2 194.15-22.48 191.48-23.75 188.18-23.75L188.18-23.75Q185.78-23.75 183.9-23.13 182.03-22.5 180.68-21.75L180.68-21.75Q179.58-21.1 179.23-20.5 178.88-19.9 178.88-18.9L178.88-18.9 178.88-2.4 182.88-2.4 182.88-19Q183.88-19.55 185.13-20 186.38-20.45 188.18-20.45L188.18-20.45Q190.23-20.45 192-19.6 193.78-18.75 194.85-16.82 195.93-14.9 195.93-11.6L195.93-11.6Q195.93-6.9 193.8-4.78 191.68-2.65 188.18-2.65L188.18-2.65Q186.03-2.65 184.5-3.38 182.98-4.1 181.98-5.05L181.98-5.05 181.98-1.35Q182.83-0.6 184.7 0.03 186.58 0.65 188.73 0.65ZM182.88 9L182.88-3.75 178.88-3.85 178.88 7.5Q178.88 8.45 179.43 8.9 179.98 9.35 181.03 9.35L181.03 9.35Q181.63 9.35 182.13 9.22 182.63 9.1 182.88 9L182.88 9ZM214.43-2.6L214.43-2.6 214.43-2.6Q216.53-2.6 217.9-3.03 219.28-3.45 219.88-3.85L219.88-3.85 219.88-11.1 213.68-10.45Q211.08-10.25 209.83-9.3 208.58-8.35 208.58-6.55L208.58-6.55Q208.58-4.7 210.05-3.65 211.53-2.6 214.43-2.6ZM214.38-23.75L214.38-23.75 214.38-23.75Q218.73-23.75 221.28-21.8 223.83-19.85 223.83-15.65L223.83-15.65 223.83-3.8Q223.83-2.7 223.4-2.13 222.98-1.55 222.13-1.05L222.13-1.05Q220.93-0.4 218.93 0.15 216.93 0.7 214.43 0.7L214.43 0.7Q209.73 0.7 207.15-1.15 204.58-3 204.58-6.5L204.58-6.5Q204.58-9.75 206.75-11.48 208.93-13.2 212.78-13.55L212.78-13.55 219.88-14.25 219.88-15.65Q219.88-18.15 218.38-19.3 216.88-20.45 214.33-20.45L214.33-20.45Q212.28-20.45 210.4-19.85 208.53-19.25 207.08-18.5L207.08-18.5Q206.68-18.85 206.35-19.33 206.03-19.8 206.03-20.3L206.03-20.3Q206.03-21.6 207.48-22.3L207.48-22.3Q208.83-23 210.6-23.38 212.38-23.75 214.38-23.75ZM231.17-6.05L231.17-13.2 235.17-13.2 235.17-6.3Q235.17-4.3 236.32-3.48 237.47-2.65 239.47-2.65L239.47-2.65Q240.32-2.65 241.37-2.95 242.42-3.25 243.12-3.65L243.12-3.65Q243.42-3.35 243.67-2.9 243.92-2.45 243.92-1.85L243.92-1.85Q243.92-0.75 242.62-0.05 241.32 0.65 239.02 0.65L239.02 0.65Q235.52 0.65 233.35-0.9 231.17-2.45 231.17-6.05L231.17-6.05ZM242.32-19.3L233.22-19.3 233.22-22.6 243.37-22.6Q243.52-22.4 243.67-21.95 243.82-21.5 243.82-21L243.82-21Q243.82-20.2 243.42-19.75 243.02-19.3 242.32-19.3L242.32-19.3ZM235.17-28.35L235.17-11.7 231.17-11.7 231.17-29.8Q231.42-29.9 231.95-30.03 232.47-30.15 233.07-30.15L233.07-30.15Q234.12-30.15 234.65-29.73 235.17-29.3 235.17-28.35L235.17-28.35ZM269.77-14.65L269.77-9.95 265.77-9.95 265.77-14.55Q265.77-17.55 264.1-19 262.42-20.45 259.77-20.45L259.77-20.45Q257.82-20.45 256.15-19.7 254.47-18.95 253.32-17.9L253.32-17.9 252.57-21.15Q253.77-22 255.75-22.88 257.72-23.75 260.32-23.75L260.32-23.75Q264.47-23.75 267.12-21.5 269.77-19.25 269.77-14.65L269.77-14.65ZM249.82-1.55L249.82-13.2 253.82-13.2 253.82-0.1Q253.57 0 253.07 0.13 252.57 0.25 251.97 0.25L251.97 0.25Q250.92 0.25 250.37-0.18 249.82-0.6 249.82-1.55L249.82-1.55ZM265.77-1.55L265.77-13.15 269.77-13.1 269.77-0.1Q269.52 0 269 0.13 268.47 0.25 267.92 0.25L267.92 0.25Q266.82 0.25 266.3-0.18 265.77-0.6 265.77-1.55L265.77-1.55ZM253.82-30.95L253.82-11.25 249.82-11.25 249.82-32.4Q250.07-32.5 250.6-32.63 251.12-32.75 251.72-32.75L251.72-32.75Q252.77-32.75 253.3-32.33 253.82-31.9 253.82-30.95L253.82-30.95ZM293.57-6.15L293.57-6.15 293.57-6.15Q293.57-2.95 291.22-1.15 288.87 0.65 284.42 0.65L284.42 0.65Q280.62 0.65 278.22-0.53 275.82-1.7 275.82-3.1L275.82-3.1Q275.82-3.7 276.14-4.28 276.47-4.85 277.12-5.2L277.12-5.2Q278.47-4.25 280.27-3.45 282.07-2.65 284.37-2.65L284.37-2.65Q289.57-2.65 289.57-6.15L289.57-6.15Q289.57-7.6 288.69-8.53 287.82-9.45 286.12-9.85L286.12-9.85 281.97-10.95Q278.92-11.7 277.52-13.28 276.12-14.85 276.12-17.2L276.12-17.2Q276.12-19.85 278.27-21.8 280.42-23.75 284.82-23.75L284.82-23.75Q287.17-23.75 288.92-23.28 290.67-22.8 291.64-22.03 292.62-21.25 292.62-20.35L292.62-20.35Q292.62-19.7 292.29-19.2 291.97-18.7 291.42-18.45L291.42-18.45Q290.82-18.85 289.89-19.33 288.97-19.8 287.72-20.13 286.47-20.45 284.97-20.45L284.97-20.45Q282.77-20.45 281.42-19.6 280.07-18.75 280.07-17.2L280.07-17.2Q280.07-16.1 280.84-15.28 281.62-14.45 283.32-14.05L283.32-14.05 286.77-13.2Q290.17-12.4 291.87-10.68 293.57-8.95 293.57-6.15ZM319.67-14.65L319.67-9.95 315.67-9.95 315.67-14.55Q315.67-17.55 313.99-19 312.32-20.45 309.67-20.45L309.67-20.45Q307.72-20.45 306.04-19.7 304.37-18.95 303.22-17.9L303.22-17.9 302.47-21.15Q303.67-22 305.64-22.88 307.62-23.75 310.22-23.75L310.22-23.75Q314.37-23.75 317.02-21.5 319.67-19.25 319.67-14.65L319.67-14.65ZM299.72-1.55L299.72-13.2 303.72-13.2 303.72-0.1Q303.47 0 302.97 0.13 302.47 0.25 301.87 0.25L301.87 0.25Q300.82 0.25 300.27-0.18 299.72-0.6 299.72-1.55L299.72-1.55ZM315.67-1.55L315.67-13.15 319.67-13.1 319.67-0.1Q319.42 0 318.89 0.13 318.37 0.25 317.82 0.25L317.82 0.25Q316.72 0.25 316.19-0.18 315.67-0.6 315.67-1.55L315.67-1.55ZM303.72-30.95L303.72-11.25 299.72-11.25 299.72-32.4Q299.97-32.5 300.49-32.63 301.02-32.75 301.62-32.75L301.62-32.75Q302.67-32.75 303.19-32.33 303.72-31.9 303.72-30.95L303.72-30.95ZM335.41-2.6L335.41-2.6 335.41-2.6Q337.51-2.6 338.89-3.03 340.26-3.45 340.86-3.85L340.86-3.85 340.86-11.1 334.66-10.45Q332.06-10.25 330.81-9.3 329.56-8.35 329.56-6.55L329.56-6.55Q329.56-4.7 331.04-3.65 332.51-2.6 335.41-2.6ZM335.36-23.75L335.36-23.75 335.36-23.75Q339.71-23.75 342.26-21.8 344.81-19.85 344.81-15.65L344.81-15.65 344.81-3.8Q344.81-2.7 344.39-2.13 343.96-1.55 343.11-1.05L343.11-1.05Q341.91-0.4 339.91 0.15 337.91 0.7 335.41 0.7L335.41 0.7Q330.71 0.7 328.14-1.15 325.56-3 325.56-6.5L325.56-6.5Q325.56-9.75 327.74-11.48 329.91-13.2 333.76-13.55L333.76-13.55 340.86-14.25 340.86-15.65Q340.86-18.15 339.36-19.3 337.86-20.45 335.31-20.45L335.31-20.45Q333.26-20.45 331.39-19.85 329.51-19.25 328.06-18.5L328.06-18.5Q327.66-18.85 327.34-19.33 327.01-19.8 327.01-20.3L327.01-20.3Q327.01-21.6 328.46-22.3L328.46-22.3Q329.81-23 331.59-23.38 333.36-23.75 335.36-23.75ZM352.51-1.55L352.51-13.2 356.51-12.6 356.51-0.1Q356.26 0 355.76 0.13 355.26 0.25 354.66 0.25L354.66 0.25Q353.61 0.25 353.06-0.18 352.51-0.6 352.51-1.55L352.51-1.55ZM356.51-30.95L356.51-10.7 352.51-11.25 352.51-32.4Q352.76-32.5 353.29-32.63 353.81-32.75 354.36-32.75L354.36-32.75Q355.46-32.75 355.99-32.33 356.51-31.9 356.51-30.95L356.51-30.95ZM372.66-2.6L372.66-2.6 372.66-2.6Q374.76-2.6 376.13-3.03 377.51-3.45 378.11-3.85L378.11-3.85 378.11-11.1 371.91-10.45Q369.31-10.25 368.06-9.3 366.81-8.35 366.81-6.55L366.81-6.55Q366.81-4.7 368.28-3.65 369.76-2.6 372.66-2.6ZM372.61-23.75L372.61-23.75 372.61-23.75Q376.96-23.75 379.51-21.8 382.06-19.85 382.06-15.65L382.06-15.65 382.06-3.8Q382.06-2.7 381.63-2.13 381.21-1.55 380.36-1.05L380.36-1.05Q379.16-0.4 377.16 0.15 375.16 0.7 372.66 0.7L372.66 0.7Q367.96 0.7 365.38-1.15 362.81-3 362.81-6.5L362.81-6.5Q362.81-9.75 364.98-11.48 367.16-13.2 371.01-13.55L371.01-13.55 378.11-14.25 378.11-15.65Q378.11-18.15 376.61-19.3 375.11-20.45 372.56-20.45L372.56-20.45Q370.51-20.45 368.63-19.85 366.76-19.25 365.31-18.5L365.31-18.5Q364.91-18.85 364.58-19.33 364.26-19.8 364.26-20.3L364.26-20.3Q364.26-21.6 365.71-22.3L365.71-22.3Q367.06-23 368.83-23.38 370.61-23.75 372.61-23.75Z" opacity="1" transform="matrix(1,0,0,1,0,0)" fill="#0369a1" class="slogan-text-1" data-fill-palette-color="secondary" id="text-1"></path></svg></g></svg></g></svg></g></svg></g><g transform="matrix(1,0,0,1,414.2367106577336,14.54026036179998)"><svg viewBox="0 0 116.13881379202009 99.54881722579842" height="99.54881722579842" width="116.13881379202009"><g><svg version="1.1" xmlns="http://www.w3.org/2000/svg" xmlns:xlink="http://www.w3.org/1999/xlink" x="0" y="0" viewBox="0 0 100 85.71537281590388" enable-background="new 0 0 100 85.714" xml:space="preserve" id="icon-0" width="116.13881379202009" height="99.54881722579842" class="icon-icon-0" data-fill-palette-color="accent"><path d="M60.714 0C56.099 0 52.382 3.716 52.382 8.333S56.099 16.666 60.714 16.666 69.047 12.95 69.047 8.333 65.33 0 60.714 0" fill="#8bd8bc" data-fill-palette-color="accent"></path><path d="M22.619 9.523A8.315 8.315 0 0 0 14.286 17.856 8.315 8.315 0 0 0 22.619 26.189C27.236 26.189 30.953 22.473 30.953 17.856S27.235 9.523 22.619 9.523" fill="#8bd8bc" data-fill-palette-color="accent"></path><path d="M66.667 19.047C64.892 19.047 61.969 19.688 59.524 21.428L44.047 32.44C39.848 35.428 43.701 40.687 47.618 38.095L57.739 31.399S64.409 45.704 61.904 52.381C61.821 52.605 61.75 52.806 61.757 52.976L51.339 80.654C50.145 83.842 52.443 85.746 54.761 85.715 56.282 85.694 57.737 84.795 58.483 83.036L71.429 52.38S73.811 66.664 83.333 66.666H96.429C100 66.666 100 63.094 100 63.094S100 59.523 96.429 59.523H85.714C80.632 59.523 80.953 51.893 80.953 47.618 80.953 40.475 76.189 28.572 76.189 28.572L90.475 38.095C94.791 40.973 98.531 35.877 94.345 32.738L78.571 21.428C75.697 19.381 74.776 19.048 71.428 19.047z" fill="#8bd8bc" data-fill-palette-color="accent"></path><path d="M16.667 28.571C14.286 28.571 13.16 29.697 11.905 30.951L1.786 41.071C0.483 42.374 0 43.54 0 45.238 0 47.618 3.64 48.741 5.655 46.725L14.286 38.095C19.048 38.095 20.833 50 19.048 54.762L11.905 73.81C9.926 79.085 17.354 80.708 19.048 76.191L26.191 57.144S28.572 61.905 33.334 61.905H47.62C52.383 61.905 52.383 54.762 47.62 54.762H35.714C33.333 54.762 33.333 50 33.333 47.618 33.333 38.095 28.571 28.572 23.81 28.572z" fill="#8bd8bc" data-fill-palette-color="accent"></path></svg></g></svg></g></svg></g><defs></defs></svg><rect width="395.52" height="95.9234983524694" fill="none" stroke="none" visibility="hidden"></rect></g></svg></g></svg>